<svg xmlns="http://www.w3.org/2000/svg" version="1.1" xmlns:xlink="http://www.w3.org/1999/xlink" viewBox="0 0 200 200" width="200" height="200"><rect width="200" height="200" fill="url('#gradient')"></rect><defs><linearGradient id="gradient" gradientTransform="rotate(122 0.5 0.5)"><stop offset="0%" stop-color="#dee90b"></stop><stop offset="100%" stop-color="#dee90b"></stop></linearGradient></defs><g><g fill="#000000" transform="matrix(8.1307249712313,0,0,8.1307249712313,20.359623087563634,157.80883049750904)" stroke="#0e5278" stroke-width="0"><path d="M4.73-14.22L4.73 0L1.31 0L1.31-14.22L4.73-14.22ZM11.79 0L7.11 0L7.11-14.22L11.69-14.22Q13.57-14.22 15.08-13.36Q16.58-12.51 17.43-10.95Q18.27-9.39 18.28-7.46L18.28-7.46L18.28-6.81Q18.28-4.85 17.46-3.31Q16.63-1.76 15.13-0.88Q13.63-0.01 11.79 0L11.79 0ZM11.69-11.57L10.54-11.57L10.54-2.64L11.73-2.64Q13.20-2.64 13.99-3.69Q14.79-4.74 14.79-6.81L14.79-6.81L14.79-7.42Q14.79-9.48 13.99-10.53Q13.20-11.57 11.69-11.57L11.69-11.57Z"></path></g></g></svg>